<?xml version="1.0" standalone="no"?>
<!DOCTYPE svg PUBLIC "-//W3C//DTD SVG 20010904//EN"
 "http://www.w3.org/TR/2001/REC-SVG-20010904/DTD/svg10.dtd">
<svg version="1.0" xmlns="http://www.w3.org/2000/svg"
 width="1024.000000pt" height="768.000000pt" viewBox="0 0 1024.000000 768.000000"
 preserveAspectRatio="xMidYMid meet">

<g transform="translate(0.000000,768.000000) scale(0.100000,-0.100000)"
fill="#000000" stroke="none">
<path d="M1845 4674 c-193 -41 -349 -151 -428 -302 -72 -139 -72 -139 -72
-517 0 -306 2 -345 19 -395 54 -159 157 -286 286 -354 131 -69 130 -69 503
-73 323 -4 340 -3 420 18 45 12 94 21 109 21 14 -1 94 -17 177 -37 83 -19 157
-35 164 -35 23 0 57 40 57 68 0 14 -18 94 -41 176 l-41 149 18 138 c13 110 16
192 12 396 -5 255 -5 259 -34 343 -70 201 -219 339 -420 390 -69 18 -109 20
-393 19 -174 -1 -325 -3 -336 -5z m742 -694 c48 -29 67 -65 67 -125 0 -87 -57
-145 -144 -145 -83 0 -143 61 -143 145 0 114 123 185 220 125z m-417 -25 c79
-41 77 -160 -2 -201 -77 -40 -168 14 -168 100 0 91 88 143 170 101z m-324 -39
c58 -49 20 -146 -57 -146 -43 0 -79 39 -79 85 0 74 80 110 136 61z"/>
<path d="M6840 3840 l0 -480 95 0 95 0 0 208 c1 229 7 273 44 311 36 35 145
42 193 12 44 -28 53 -82 53 -326 l0 -205 96 0 95 0 -3 288 c-3 276 -4 289 -26
329 -12 24 -41 55 -64 70 -38 26 -49 28 -143 28 -93 0 -105 -2 -142 -27 -27
-18 -49 -44 -64 -77 -13 -28 -27 -50 -31 -51 -5 0 -8 90 -8 200 l0 200 -95 0
-95 0 0 -480z"/>
<path d="M3858 4285 c-151 -38 -250 -132 -294 -280 -28 -92 -26 -287 4 -382
21 -68 69 -145 116 -185 39 -34 132 -76 195 -89 85 -16 220 -7 296 22 90 33
166 114 194 203 12 38 21 86 21 107 l0 39 -100 0 c-89 0 -100 -2 -100 -17 0
-39 -23 -95 -50 -127 -34 -38 -85 -56 -162 -56 -100 0 -163 36 -199 115 -27
58 -27 311 0 370 34 75 104 115 201 115 111 0 192 -57 205 -143 l7 -47 101 0
100 0 -6 61 c-11 126 -99 237 -220 279 -81 28 -230 35 -309 15z"/>
<path d="M6170 4287 c-165 -38 -277 -152 -311 -316 -18 -90 -7 -304 20 -374
62 -159 189 -244 381 -254 255 -14 407 102 434 330 l6 47 -105 0 -105 0 0 -33
c0 -55 -39 -118 -89 -144 -54 -28 -161 -32 -219 -7 -93 39 -122 105 -122 281
0 135 11 188 51 236 56 68 203 88 294 41 46 -24 85 -83 85 -131 l0 -33 105 0
104 0 -6 53 c-17 147 -102 251 -238 293 -68 21 -217 27 -285 11z"/>
<path d="M8645 4238 c-22 -5 -57 -14 -77 -19 l-38 -10 0 -74 0 -75 -50 0 -50
0 0 -75 0 -75 49 0 49 0 4 -217 c4 -243 10 -272 69 -314 32 -22 43 -24 164
-24 l130 0 3 83 3 82 -74 0 c-43 0 -78 5 -85 12 -8 8 -12 66 -12 195 l0 183
85 0 85 0 0 75 0 75 -85 0 -85 0 0 95 c0 107 2 105 -85 83z"/>
<path d="M4700 4065 c-89 -28 -146 -97 -164 -197 l-7 -38 96 0 c90 0 95 1 95
21 0 32 50 76 97 83 53 9 119 -9 137 -37 8 -12 17 -45 21 -73 l7 -52 -154 -3
c-149 -4 -157 -5 -214 -34 -85 -44 -106 -83 -102 -196 3 -75 6 -90 30 -121 42
-55 99 -78 191 -78 115 0 164 25 217 108 l28 42 10 -43 c6 -23 23 -54 37 -67
24 -23 34 -25 123 -25 l97 0 0 75 c0 72 -1 75 -25 78 -48 7 -50 14 -50 191 0
234 -23 301 -124 354 -35 18 -60 22 -171 24 -92 2 -143 -2 -175 -12z m273
-452 c-10 -61 -21 -82 -54 -102 -66 -40 -185 -35 -209 9 -17 32 -12 82 12 107
20 22 29 23 139 23 l118 0 -6 -37z"/>
<path d="M5653 4065 c-41 -18 -63 -53 -84 -134 l-17 -66 -1 98 -1 97 -95 0
-95 0 0 -350 0 -350 95 0 95 0 0 200 c0 284 13 309 173 318 l77 5 0 88 c0 77
-2 90 -19 99 -27 14 -90 12 -128 -5z"/>
<path d="M7840 4065 c-90 -28 -147 -99 -164 -202 l-5 -33 94 0 c90 0 95 1 95
21 0 32 50 76 97 83 53 9 119 -9 137 -37 8 -12 18 -45 22 -73 l6 -52 -154 -3
c-149 -4 -157 -5 -214 -34 -80 -41 -104 -83 -104 -185 0 -91 18 -132 78 -174
36 -26 53 -30 126 -34 125 -7 181 18 236 105 l28 43 10 -43 c6 -23 23 -54 37
-67 24 -23 34 -25 123 -25 l97 0 3 78 3 77 -29 0 c-16 0 -34 6 -40 13 -6 7
-12 92 -14 202 -3 171 -6 194 -25 230 -24 46 -54 75 -103 101 -47 25 -272 31
-340 9z m274 -457 c-12 -78 -47 -110 -136 -123 -55 -8 -114 8 -128 35 -20 36
-12 87 16 109 23 18 41 21 140 21 l114 0 -6 -42z"/>
</g>
</svg>
